<svg width="31" height="31" viewBox="0 0 31 31" fill="none" xmlns="http://www.w3.org/2000/svg">
<path d="M19.4518 11.5479C19.3162 11.4113 19.1549 11.3028 18.9772 11.2287C18.7995 11.1547 18.6089 11.1166 18.4163 11.1166C18.2238 11.1166 18.0332 11.1547 17.8555 11.2287C17.6778 11.3028 17.5165 11.4113 17.3809 11.5479L15.4997 13.4438L13.6184 11.5479C13.3438 11.2733 12.9714 11.1191 12.583 11.1191C12.1946 11.1191 11.8222 11.2733 11.5476 11.5479C11.273 11.8226 11.1187 12.195 11.1187 12.5834C11.1187 12.9717 11.273 13.3442 11.5476 13.6188L13.4434 15.5L11.5476 17.3813C11.4109 17.5169 11.3024 17.6781 11.2284 17.8559C11.1543 18.0336 11.1162 18.2242 11.1162 18.4167C11.1162 18.6092 11.1543 18.7998 11.2284 18.9775C11.3024 19.1553 11.4109 19.3165 11.5476 19.4521C11.6832 19.5888 11.8444 19.6973 12.0222 19.7713C12.1999 19.8454 12.3905 19.8835 12.583 19.8835C12.7755 19.8835 12.9661 19.8454 13.1438 19.7713C13.3216 19.6973 13.4828 19.5888 13.6184 19.4521L15.4997 17.5563L17.3809 19.4521C17.5165 19.5888 17.6778 19.6973 17.8555 19.7713C18.0332 19.8454 18.2238 19.8835 18.4163 19.8835C18.6089 19.8835 18.7995 19.8454 18.9772 19.7713C19.1549 19.6973 19.3162 19.5888 19.4518 19.4521C19.5884 19.3165 19.6969 19.1553 19.771 18.9775C19.845 18.7998 19.8831 18.6092 19.8831 18.4167C19.8831 18.2242 19.845 18.0336 19.771 17.8559C19.6969 17.6781 19.5884 17.5169 19.4518 17.3813L17.5559 15.5L19.4518 13.6188C19.5884 13.4832 19.6969 13.3219 19.771 13.1442C19.845 12.9665 19.8831 12.7759 19.8831 12.5834C19.8831 12.3908 19.845 12.2002 19.771 12.0225C19.6969 11.8448 19.5884 11.6835 19.4518 11.5479Z" fill="#FF006B"/>
</svg>
