<svg width="35" height="35" viewBox="0 0 35 35" fill="none" xmlns="http://www.w3.org/2000/svg">
<g clip-path="url(#clip0)">
<path d="M0 28.1944C0 29.2258 0.409721 30.215 1.13903 30.9443C1.86834 31.6736 2.85749 32.0833 3.88889 32.0833H27.2222C28.2536 32.0833 29.2428 31.6736 29.9721 30.9443C30.7014 30.215 31.1111 29.2258 31.1111 28.1944V11.6667C31.1111 10.6353 30.7014 9.64612 29.9721 8.91681C29.2428 8.1875 28.2536 7.77778 27.2222 7.77778H18.4722C15.0092 7.77778 15.5556 2.91667 10.2686 2.91667H3.88889C2.85749 2.91667 1.86834 3.32639 1.13903 4.0557C0.409721 4.78501 0 5.77416 0 6.80556L0 28.1944Z" fill="#CF1B67"/>
<path d="M31.4378 11.6667H25.0581C19.7711 11.6667 19.8246 16.5278 16.3615 16.5278H7.61153C5.46389 16.5278 3.54569 18.269 3.32792 20.4167L2.84861 24.1831L2.33917 28.1944L2.31972 28.1925C2.20694 28.7826 1.66639 29.1638 1.05583 29.1638C0.430694 29.1638 -0.0194444 28.6708 0.0116667 28.0515C0.00972222 28.1001 0 28.1458 0 28.1944C0.00146059 29.1227 0.33584 30.0197 0.942396 30.7224C1.54895 31.4251 2.38744 31.887 3.30556 32.024C3.47764 32.061 3.66625 32.0833 3.88889 32.0833H29.1667C31.3143 32.0833 33.2325 30.3421 33.4503 28.1944L34.931 15.5556C35.1497 13.4079 33.5854 11.6667 31.4378 11.6667Z" fill="#F5207A"/>
</g>
<defs>
<clipPath id="clip0">
<rect width="35" height="35" fill="white"/>
</clipPath>
</defs>
</svg>
