<svg width="35" height="35" viewBox="0 0 35 35" fill="none" xmlns="http://www.w3.org/2000/svg">
<g clip-path="url(#clip0)">
<path d="M1.49258 30.5908C0.857042 29.9552 0.5 29.0932 0.5 28.1944V6.80556C0.5 5.90677 0.857043 5.04479 1.49258 4.40925C2.12812 3.77371 2.9901 3.41667 3.88889 3.41667H10.2686C11.5077 3.41667 12.373 3.69978 13.0333 4.10296C13.7018 4.51113 14.1928 5.06143 14.6616 5.65659C14.7574 5.77826 14.8531 5.90389 14.9502 6.03124C15.7604 7.09451 16.6621 8.27778 18.4722 8.27778H27.2222C28.121 8.27778 28.983 8.63482 29.6185 9.27036C30.2541 9.9059 30.6111 10.7679 30.6111 11.6667V28.1944C30.6111 29.0932 30.2541 29.9552 29.6185 30.5908C28.983 31.2263 28.121 31.5833 27.2222 31.5833H3.88889C2.9901 31.5833 2.12812 31.2263 1.49258 30.5908Z" stroke="#CF1B67"/>
<path d="M3.82392 20.4798L3.82408 20.4798L3.82537 20.4671C4.01746 18.5728 5.72252 17.0278 7.61153 17.0278H16.3615C18.1526 17.0278 19.1536 15.8685 20.0707 14.8066C20.1811 14.6787 20.2903 14.5523 20.3995 14.4294C20.9303 13.8324 21.4842 13.2742 22.205 12.8597C22.9179 12.4498 23.8192 12.1667 25.0581 12.1667H31.4378C33.2852 12.1667 34.6208 13.6471 34.4339 15.5011L32.9537 28.1363L32.9536 28.1363L32.9528 28.144C32.7607 30.0384 31.0557 31.5833 29.1667 31.5833H3.88889C3.7013 31.5833 3.54788 31.5647 3.41051 31.5352L3.39504 31.5318L3.37938 31.5295C2.57964 31.4101 1.84925 31.0078 1.3209 30.3957C1.12413 30.1677 0.960246 29.9163 0.831975 29.6487C0.904669 29.6586 0.979376 29.6638 1.05583 29.6638C1.71444 29.6638 2.3556 29.3235 2.65969 28.729L2.77385 28.7404L2.83518 28.2574L3.34461 24.2462L3.34463 24.2461L3.82392 20.4798Z" stroke="#F5207A"/>
</g>
<defs>
<clipPath id="clip0">
<rect width="35" height="35" fill="white"/>
</clipPath>
</defs>
</svg>
