<svg width="35" height="35" viewBox="0 0 35 35" fill="none" xmlns="http://www.w3.org/2000/svg">
<path d="M15.722 28.8407L15.7212 28.84C11.956 25.4257 8.87115 22.6279 6.72162 19.9998C4.57783 17.3789 3.41663 14.9878 3.41663 12.3958C3.41663 8.18031 6.72194 4.875 10.9375 4.875C13.3236 4.875 15.6215 5.98822 17.1193 7.74709L17.5 8.19412L17.8806 7.74709C19.3784 5.98822 21.6764 4.875 24.0625 4.875C28.278 4.875 31.5833 8.18031 31.5833 12.3958C31.5833 14.9878 30.4221 17.3789 28.2782 20.0018C26.1345 22.6245 23.0606 25.4178 19.3094 28.8267L19.2794 28.854L19.2783 28.855L17.5012 30.4604L15.722 28.8407Z" stroke="#FF006B"/>
</svg>
