<svg width="24" height="24" viewBox="0 0 24 24" fill="none" xmlns="http://www.w3.org/2000/svg">
<path d="M10.4558 13.544C11.275 14.3631 12.3859 14.8232 13.5443 14.8232C14.7027 14.8232 15.8137 14.3631 16.6328 13.544L19.7208 10.456C20.527 9.63421 20.9761 8.52739 20.9706 7.3762C20.9651 6.22502 20.5053 5.12255 19.6913 4.30853C18.8773 3.49451 17.7748 3.03475 16.6236 3.02923C15.4724 3.0237 14.3656 3.47285 13.5438 4.27901L11.9998 5.82301M13.5438 10.456C12.7247 9.63725 11.614 9.1773 10.4558 9.1773C9.29766 9.1773 8.18692 9.63725 7.36781 10.456L4.27881 13.544C3.45969 14.3631 2.99951 15.4741 2.99951 16.6325C2.99951 17.7909 3.45969 18.9019 4.27881 19.721C5.09793 20.5401 6.2089 21.0003 7.36731 21.0003C8.52572 21.0003 9.63669 20.5401 10.4558 19.721L11.9998 18.177L13.5438 10.456Z" stroke="#FF006B" stroke-width="2" stroke-linecap="round" stroke-linejoin="round"/>
</svg>
