<svg width="24" height="20" viewBox="0 0 24 20" fill="none" xmlns="http://www.w3.org/2000/svg">
<path d="M23.3251 0.577353H6.46635C6.33934 0.577353 6.23541 0.681276 6.23541 0.808294V2.42488C6.23541 2.5519 6.33934 2.65582 6.46635 2.65582H23.3251C23.4521 2.65582 23.556 2.5519 23.556 2.42488V0.808294C23.556 0.681276 23.4521 0.577353 23.3251 0.577353ZM23.3251 8.77576H6.46635C6.33934 8.77576 6.23541 8.87969 6.23541 9.00671V10.6233C6.23541 10.7503 6.33934 10.8542 6.46635 10.8542H23.3251C23.4521 10.8542 23.556 10.7503 23.556 10.6233V9.00671C23.556 8.87969 23.4521 8.77576 23.3251 8.77576ZM23.3251 16.9742H6.46635C6.33934 16.9742 6.23541 17.0781 6.23541 17.2051V18.8217C6.23541 18.9487 6.33934 19.0526 6.46635 19.0526H23.3251C23.4521 19.0526 23.556 18.9487 23.556 18.8217V17.2051C23.556 17.0781 23.4521 16.9742 23.3251 16.9742ZM0 1.61659C-3.16342e-09 1.82888 0.0418144 2.0391 0.123056 2.23523C0.204297 2.43136 0.323374 2.60957 0.473488 2.75969C0.623602 2.9098 0.801814 3.02888 0.997947 3.11012C1.19408 3.19136 1.4043 3.23318 1.61659 3.23318C1.82888 3.23318 2.0391 3.19136 2.23523 3.11012C2.43136 3.02888 2.60958 2.9098 2.75969 2.75969C2.9098 2.60957 3.02888 2.43136 3.11012 2.23523C3.19136 2.0391 3.23318 1.82888 3.23318 1.61659C3.23318 1.40429 3.19136 1.19408 3.11012 0.997947C3.02888 0.801813 2.9098 0.623602 2.75969 0.473488C2.60958 0.323374 2.43136 0.204296 2.23523 0.123055C2.0391 0.0418141 1.82888 0 1.61659 0C1.4043 0 1.19408 0.0418141 0.997947 0.123055C0.801814 0.204296 0.623602 0.323374 0.473488 0.473488C0.323374 0.623602 0.204297 0.801813 0.123056 0.997947C0.0418144 1.19408 -3.16342e-09 1.40429 0 1.61659ZM0 9.815C-3.16342e-09 10.0273 0.0418144 10.2375 0.123056 10.4336C0.204297 10.6298 0.323374 10.808 0.473488 10.9581C0.623602 11.1082 0.801814 11.2273 0.997947 11.3085C1.19408 11.3898 1.4043 11.4316 1.61659 11.4316C1.82888 11.4316 2.0391 11.3898 2.23523 11.3085C2.43136 11.2273 2.60958 11.1082 2.75969 10.9581C2.9098 10.808 3.02888 10.6298 3.11012 10.4336C3.19136 10.2375 3.23318 10.0273 3.23318 9.815C3.23318 9.60271 3.19136 9.39249 3.11012 9.19636C3.02888 9.00022 2.9098 8.82201 2.75969 8.6719C2.60958 8.52178 2.43136 8.40271 2.23523 8.32147C2.0391 8.24023 1.82888 8.19841 1.61659 8.19841C1.4043 8.19841 1.19408 8.24023 0.997947 8.32147C0.801814 8.40271 0.623602 8.52178 0.473488 8.6719C0.323374 8.82201 0.204297 9.00022 0.123056 9.19636C0.0418144 9.39249 -3.16342e-09 9.60271 0 9.815ZM0 18.0134C-3.16342e-09 18.2257 0.0418144 18.4359 0.123056 18.6321C0.204297 18.8282 0.323374 19.0064 0.473488 19.1565C0.623602 19.3066 0.801814 19.4257 0.997947 19.5069C1.19408 19.5882 1.4043 19.63 1.61659 19.63C1.82888 19.63 2.0391 19.5882 2.23523 19.5069C2.43136 19.4257 2.60958 19.3066 2.75969 19.1565C2.9098 19.0064 3.02888 18.8282 3.11012 18.6321C3.19136 18.4359 3.23318 18.2257 3.23318 18.0134C3.23318 17.8011 3.19136 17.5909 3.11012 17.3948C3.02888 17.1986 2.9098 17.0204 2.75969 16.8703C2.60958 16.7202 2.43136 16.6011 2.23523 16.5199C2.0391 16.4386 1.82888 16.3968 1.61659 16.3968C1.4043 16.3968 1.19408 16.4386 0.997947 16.5199C0.801814 16.6011 0.623602 16.7202 0.473488 16.8703C0.323374 17.0204 0.204297 17.1986 0.123056 17.3948C0.0418144 17.5909 -3.16342e-09 17.8011 0 18.0134Z" fill="#FF006B"/>
</svg>
