<svg width="35" height="35" viewBox="0 0 35 35" fill="none" xmlns="http://www.w3.org/2000/svg">
<path d="M20.4167 11.6667V8.74999C20.4167 7.97645 20.1094 7.23458 19.5624 6.6876C19.0154 6.14062 18.2735 5.83333 17.5 5.83333H7.29167C6.51812 5.83333 5.77625 6.14062 5.22927 6.6876C4.68229 7.23458 4.375 7.97645 4.375 8.74999V26.25C4.375 27.0235 4.68229 27.7654 5.22927 28.3124C5.77625 28.8594 6.51812 29.1667 7.29167 29.1667H17.5C18.2735 29.1667 19.0154 28.8594 19.5624 28.3124C20.1094 27.7654 20.4167 27.0235 20.4167 26.25V23.3333" stroke="#FF006B" stroke-width="2" stroke-linecap="round" stroke-linejoin="round"/>
<path d="M26.25 21.875L30.625 17.5M10.2084 17.5H30.625L26.25 13.125L10.2084 17.5Z" stroke="#FF006B" stroke-width="2" stroke-linecap="round" stroke-linejoin="round"/>
</svg>
